<svg width="633" height="252" viewBox="0 0 633 252" fill="none" xmlns="http://www.w3.org/2000/svg">
<rect width="632.156" height="252" rx="10.5816" fill="#4095AF"/>
<rect x="21.3219" y="59.1741" width="589.512" height="173.441" rx="10.5816" fill="#2D6879"/>
<path d="M58.0981 32.0071C58.0981 40.7212 49.8963 47.7853 39.7789 47.7853C29.6615 47.7853 21.4597 40.7212 21.4597 32.0071C21.4597 23.2931 29.6615 16.229 39.7789 16.229C49.8963 16.229 58.0981 23.2931 58.0981 32.0071Z" fill="#EC635E"/>
<ellipse cx="94.7365" cy="32.0071" rx="18.3192" ry="15.7782" fill="#F6BF6A"/>
<ellipse cx="149.694" cy="32.0071" rx="18.3192" ry="15.7782" fill="#8ACD5E"/>
<path d="M113.41 154.253C113.41 149.786 112.43 146.415 110.47 144.142C108.511 141.869 105.65 140.732 101.888 140.732C99.1441 140.732 96.7143 141.32 94.5979 142.496C92.56 143.593 90.9531 145.161 89.7774 147.199C88.68 149.237 88.1314 151.588 88.1314 154.253V187.174H78.7255V133.09H88.1314V141.555C89.9342 138.263 92.1681 135.833 94.8331 134.266C97.5765 132.698 100.712 131.914 104.239 131.914C109.961 131.914 114.468 133.835 117.76 137.675C121.13 141.438 122.816 146.572 122.816 153.078V187.174H113.41V154.253ZM135.795 160.132C135.795 154.645 137.01 149.786 139.44 145.553C141.948 141.32 145.318 137.989 149.551 135.559C153.784 133.129 158.526 131.914 163.777 131.914C169.107 131.914 173.849 133.129 178.004 135.559C182.236 137.989 185.568 141.32 187.998 145.553C190.506 149.786 191.76 154.645 191.76 160.132C191.76 165.54 190.506 170.4 187.998 174.711C185.568 178.944 182.236 182.275 178.004 184.705C173.849 187.135 169.107 188.35 163.777 188.35C158.526 188.35 153.784 187.135 149.551 184.705C145.318 182.275 141.948 178.944 139.44 174.711C137.01 170.4 135.795 165.54 135.795 160.132ZM145.318 160.132C145.318 163.894 146.102 167.226 147.67 170.126C149.316 173.026 151.51 175.338 154.254 177.063C157.076 178.709 160.25 179.532 163.777 179.532C167.305 179.532 170.44 178.709 173.183 177.063C176.005 175.338 178.2 173.026 179.767 170.126C181.413 167.226 182.236 163.894 182.236 160.132C182.236 156.37 181.413 153.038 179.767 150.138C178.2 147.16 176.005 144.847 173.183 143.201C170.44 141.555 167.305 140.732 163.777 140.732C160.25 140.732 157.076 141.555 154.254 143.201C151.51 144.847 149.316 147.16 147.67 150.138C146.102 153.038 145.318 156.37 145.318 160.132ZM245.244 95.4664H254.65V187.174H245.244V95.4664ZM199.978 160.132C199.978 154.253 201.193 149.237 203.623 145.083C206.053 140.85 209.306 137.597 213.382 135.324C217.457 133.051 221.925 131.914 226.785 131.914C231.331 131.914 235.289 133.051 238.66 135.324C242.03 137.597 244.656 140.85 246.537 145.083C248.497 149.237 249.477 154.253 249.477 160.132C249.477 165.932 248.497 170.949 246.537 175.182C244.656 179.414 242.03 182.667 238.66 184.94C235.289 187.213 231.331 188.35 226.785 188.35C221.925 188.35 217.457 187.213 213.382 184.94C209.306 182.667 206.053 179.414 203.623 175.182C201.193 170.949 199.978 165.932 199.978 160.132ZM209.502 160.132C209.502 164.286 210.325 167.814 211.971 170.714C213.695 173.614 215.968 175.809 218.79 177.298C221.612 178.787 224.669 179.532 227.961 179.532C230.704 179.532 233.408 178.787 236.073 177.298C238.738 175.809 240.933 173.614 242.657 170.714C244.382 167.814 245.244 164.286 245.244 160.132C245.244 155.978 244.382 152.451 242.657 149.55C240.933 146.65 238.738 144.456 236.073 142.966C233.408 141.477 230.704 140.732 227.961 140.732C224.669 140.732 221.612 141.477 218.79 142.966C215.968 144.456 213.695 146.65 211.971 149.55C210.325 152.451 209.502 155.978 209.502 160.132ZM292.663 188.35C287.647 188.35 283.179 187.174 279.26 184.823C275.419 182.393 272.401 179.061 270.206 174.829C268.09 170.596 267.032 165.697 267.032 160.132C267.032 154.489 268.129 149.55 270.324 145.318C272.597 141.085 275.732 137.793 279.73 135.442C283.806 133.09 288.509 131.914 293.839 131.914C299.169 131.914 303.715 133.051 307.477 135.324C311.318 137.519 314.257 140.693 316.295 144.847C318.333 149.002 319.352 153.94 319.352 159.662C319.352 160.21 319.313 160.798 319.235 161.425C319.235 161.974 319.235 162.327 319.235 162.484H273.028V154.489H311.828L308.065 159.897C308.3 159.505 308.536 158.917 308.771 158.133C309.006 157.271 309.123 156.566 309.123 156.017C309.123 152.803 308.457 150.021 307.125 147.669C305.871 145.318 304.107 143.476 301.834 142.143C299.561 140.811 296.896 140.145 293.839 140.145C290.233 140.145 287.137 140.928 284.55 142.496C282.042 143.985 280.083 146.18 278.672 149.08C277.339 151.902 276.634 155.39 276.555 159.544C276.555 163.777 277.222 167.382 278.554 170.361C279.887 173.34 281.846 175.613 284.433 177.18C287.02 178.748 290.155 179.532 293.839 179.532C297.523 179.532 300.776 178.748 303.597 177.18C306.419 175.534 308.81 173.065 310.769 169.773L318.412 174.594C315.59 179.14 312.024 182.589 307.713 184.94C303.48 187.213 298.463 188.35 292.663 188.35ZM324.014 163.659V154.841H347.529V163.659H324.014ZM348.7 133.09H375.742V141.908H348.7V133.09ZM357.518 114.278H366.924V187.174H357.518V114.278ZM387.409 170.596C388.507 172.242 389.761 173.771 391.172 175.182C392.582 176.592 394.189 177.729 395.992 178.591C397.873 179.375 399.911 179.767 402.106 179.767C404.771 179.767 406.848 179.179 408.337 178.003C409.905 176.749 410.689 175.064 410.689 172.948C410.689 171.066 410.062 169.499 408.808 168.245C407.632 166.912 406.103 165.815 404.222 164.953C402.341 164.012 400.342 163.15 398.226 162.366C395.875 161.425 393.484 160.328 391.054 159.074C388.703 157.741 386.704 156.056 385.058 154.018C383.49 151.902 382.706 149.276 382.706 146.141C382.706 142.927 383.529 140.262 385.175 138.146C386.9 136.029 389.094 134.462 391.759 133.443C394.503 132.424 397.325 131.914 400.225 131.914C403.125 131.914 405.829 132.385 408.337 133.325C410.924 134.266 413.197 135.52 415.157 137.088C417.116 138.655 418.645 140.458 419.742 142.496L412.217 147.317C410.728 145.279 408.847 143.593 406.574 142.261C404.379 140.928 401.871 140.262 399.049 140.262C397.089 140.262 395.404 140.693 393.993 141.555C392.582 142.418 391.877 143.75 391.877 145.553C391.877 146.964 392.426 148.218 393.523 149.315C394.62 150.413 396.031 151.392 397.756 152.255C399.48 153.117 401.283 153.94 403.164 154.724C406.299 155.978 409.16 157.349 411.747 158.839C414.334 160.25 416.372 161.974 417.861 164.012C419.429 166.05 420.212 168.676 420.212 171.889C420.212 176.592 418.488 180.512 415.039 183.647C411.669 186.782 407.201 188.35 401.636 188.35C398.03 188.35 394.777 187.723 391.877 186.469C388.977 185.136 386.508 183.451 384.47 181.413C382.51 179.375 381.021 177.298 380.002 175.182L387.409 170.596ZM424.365 163.659V154.841H447.88V163.659H424.365ZM461.514 160.132C461.514 163.894 462.298 167.226 463.865 170.126C465.511 173.026 467.706 175.338 470.449 177.063C473.271 178.709 476.446 179.532 479.973 179.532C482.873 179.532 485.577 179.101 488.086 178.238C490.672 177.298 492.906 176.083 494.787 174.594C496.668 173.026 498.001 171.38 498.785 169.656V181.413C496.904 183.608 494.199 185.332 490.672 186.586C487.223 187.762 483.657 188.35 479.973 188.35C474.721 188.35 469.979 187.135 465.747 184.705C461.514 182.275 458.143 178.944 455.635 174.711C453.205 170.4 451.99 165.54 451.99 160.132C451.99 154.645 453.205 149.786 455.635 145.553C458.143 141.32 461.514 137.989 465.747 135.559C469.979 133.129 474.721 131.914 479.973 131.914C483.657 131.914 487.223 132.541 490.672 133.796C494.199 134.971 496.904 136.656 498.785 138.851V150.609C498.001 148.806 496.668 147.16 494.787 145.67C492.906 144.181 490.672 143.005 488.086 142.143C485.577 141.203 482.873 140.732 479.973 140.732C476.446 140.732 473.271 141.555 470.449 143.201C467.706 144.847 465.511 147.16 463.865 150.138C462.298 153.038 461.514 156.37 461.514 160.132ZM513.427 95.4664H522.833V187.174H513.427V95.4664ZM540.524 110.751C540.524 108.948 541.151 107.42 542.406 106.166C543.738 104.912 545.267 104.284 546.991 104.284C548.794 104.284 550.322 104.912 551.576 106.166C552.83 107.42 553.458 108.948 553.458 110.751C553.458 112.475 552.83 114.004 551.576 115.336C550.322 116.591 548.794 117.218 546.991 117.218C545.267 117.218 543.738 116.591 542.406 115.336C541.151 114.004 540.524 112.475 540.524 110.751ZM542.288 133.09H551.694V187.174H542.288V133.09Z" fill="white"/>
</svg>
